<?xml version="1.0" encoding="utf-8"?>
<!-- Generator: Adobe Illustrator 18.0.0, SVG Export Plug-In . SVG Version: 6.00 Build 0)  -->
<!DOCTYPE svg PUBLIC "-//W3C//DTD SVG 1.1//EN" "http://www.w3.org/Graphics/SVG/1.1/DTD/svg11.dtd">
<svg version="1.1" id="Слой_1" xmlns="http://www.w3.org/2000/svg" xmlns:xlink="http://www.w3.org/1999/xlink" x="0px" y="0px"
	 width="33.7px" height="47.9px" viewBox="0 0 33.7 47.9" enable-background="new 0 0 33.7 47.9" xml:space="preserve">
<g>
	<g>
		<path fill="none" stroke="#FFFFFF" stroke-width="3" stroke-miterlimit="10" d="M27.7,6c-2.9-2.9-6.8-4.5-10.8-4.5
			C12.7,1.5,8.9,3.1,6,6c-5.4,5.4-6,15.4-1.4,21.6l12.3,17.8l12.3-17.7C33.7,21.4,33.1,11.4,27.7,6L27.7,6z M17,22.3
			c-3.1,0-5.6-2.5-5.6-5.6c0-3.1,2.5-5.6,5.6-5.6c3.1,0,5.6,2.5,5.6,5.6C22.6,19.8,20.1,22.3,17,22.3L17,22.3z M17,22.3"/>
	</g>
</g>
</svg>
