<?xml version="1.0" encoding="iso-8859-1"?>
<!-- Generator: Adobe Illustrator 18.0.0, SVG Export Plug-In . SVG Version: 6.00 Build 0)  -->
<!DOCTYPE svg PUBLIC "-//W3C//DTD SVG 1.1//EN" "http://www.w3.org/Graphics/SVG/1.1/DTD/svg11.dtd">
<svg version="1.1" id="&#x421;&#x43B;&#x43E;&#x439;_1"
	 xmlns="http://www.w3.org/2000/svg" xmlns:xlink="http://www.w3.org/1999/xlink" x="0px" y="0px" width="409.602px"
	 height="307.199px" viewBox="0 0 409.602 307.199" style="enable-background:new 0 0 409.602 307.199;" xml:space="preserve">
<g>
	<path style="fill:#FFFFFF;" d="M358.398,0H51.199C22.926,0,0,22.926,0,51.199V256c0,28.273,22.926,51.199,51.199,51.199h307.199
		c28.278,0,51.204-22.926,51.204-51.199V51.199C409.602,22.926,386.676,0,358.398,0L358.398,0z M274.125,136.625L382.5,43.75
		c0.75,2.398,1.5,4.801,1.5,7.449V256c0,1.773-0.676,3.352-1.023,5.023L274.125,136.625z M358.398,25.602
		c1.704,0,3.204,0.648,4.801,0.972L204.801,162.352L46.398,26.574C48,26.25,49.5,25.602,51.199,25.602H358.398z M26.613,261
		c-0.351-1.676-1.011-3.227-1.011-5V51.199c0-2.648,0.761-5.051,1.511-7.449l108.336,92.852L26.613,261z M51.199,281.602
		c-2.586,0-4.937-0.754-7.301-1.477l111-126.852l41.579,35.625c2.386,2.079,5.359,3.102,8.324,3.102
		c2.961,0,5.937-1.023,8.324-3.102l41.574-35.625l111,126.852c-2.347,0.727-4.699,1.477-7.301,1.477H51.199z M51.199,281.602"/>
</g>
</svg>
