<?xml version="1.0" encoding="iso-8859-1"?>
<!-- Generator: Adobe Illustrator 18.0.0, SVG Export Plug-In . SVG Version: 6.00 Build 0)  -->
<!DOCTYPE svg PUBLIC "-//W3C//DTD SVG 1.1//EN" "http://www.w3.org/Graphics/SVG/1.1/DTD/svg11.dtd">
<svg version="1.1" id="Layer_1" xmlns="http://www.w3.org/2000/svg" xmlns:xlink="http://www.w3.org/1999/xlink" x="0px" y="0px"
	 width="512.015px" height="448px" viewBox="-49.015 173 512.015 448" style="enable-background:new -49.015 173 512.015 448;"
	 xml:space="preserve">
<g transform="translate(-1)">
	<path style="fill:#FFFFFF;" d="M401.376,535.667h41.28c11.782,0,21.333,9.551,21.333,21.333c0,11.782-9.551,21.333-21.333,21.333
		h-41.28c-11.782,0-21.333-9.551-21.333-21.333C380.043,545.218,389.594,535.667,401.376,535.667z"/>
	<path style="fill:#FFFFFF;" d="M207.985,535.667h106.816c11.782,0,21.333,9.551,21.333,21.333c0,11.782-9.551,21.333-21.333,21.333
		H207.985c-11.782,0-21.333-9.551-21.333-21.333C186.652,545.218,196.203,535.667,207.985,535.667z"/>
	<path style="fill:#FFFFFF;" d="M101.329,471.667l267.403-0.128c24.281,0,45.552-16.308,51.801-39.554l41.587-148.965
		c9.201-34.148-16.527-67.353-51.852-67.353H58.652c-13.462,0-23.559,12.316-20.919,25.517l42.667,213.333
		C82.394,464.493,91.156,471.672,101.329,471.667z M118.806,428.992L84.674,258.333h325.594c7.36,0,12.521,6.66,10.706,13.4
		l-41.59,148.976c-1.293,4.808-5.669,8.163-10.662,8.163L118.806,428.992z"/>
	<path style="fill:#FFFFFF;" d="M357.318,621c35.355,0,64-28.645,64-64c0-35.355-28.645-64-64-64s-64,28.645-64,64
		C293.318,592.355,321.963,621,357.318,621z M357.318,535.667c11.791,0,21.333,9.542,21.333,21.333s-9.542,21.333-21.333,21.333
		s-21.333-9.542-21.333-21.333S345.527,535.667,357.318,535.667z"/>
	<path style="fill:#FFFFFF;" d="M165.318,621c35.355,0,64-28.645,64-64c0-35.355-28.645-64-64-64s-64,28.645-64,64
		C101.318,592.355,129.963,621,165.318,621z M165.318,535.667c11.791,0,21.333,9.542,21.333,21.333s-9.542,21.333-21.333,21.333
		s-21.333-9.542-21.333-21.333S153.527,535.667,165.318,535.667z"/>
	<path style="fill:#FFFFFF;" d="M1.398,195.428l64,21.333c11.177,3.726,17.218,15.807,13.492,26.985
		c-3.726,11.177-15.807,17.218-26.985,13.492l-64-21.333c-11.177-3.726-17.218-15.807-13.492-26.985
		C-21.861,197.743-9.78,191.702,1.398,195.428z"/>
	<path style="fill:#FFFFFF;" d="M-48.015,215.667c0-23.573,19.093-42.667,42.667-42.667s42.667,19.093,42.667,42.667
		s-19.093,42.667-42.667,42.667S-48.015,239.24-48.015,215.667"/>
	<path style="fill:#FFFFFF;" d="M122.652,578.333h-21.333c-41.243,0-74.667-33.423-74.667-74.667S60.075,429,101.318,429
		c11.782,0,21.333,9.551,21.333,21.333s-9.551,21.333-21.333,21.333c-17.679,0-32,14.321-32,32s14.321,32,32,32h21.333
		c11.782,0,21.333,9.551,21.333,21.333C143.985,568.782,134.434,578.333,122.652,578.333z"/>
</g>
</svg>
