<?xml version="1.0" encoding="iso-8859-1"?>
<!-- Generator: Adobe Illustrator 18.0.0, SVG Export Plug-In . SVG Version: 6.00 Build 0)  -->
<!DOCTYPE svg PUBLIC "-//W3C//DTD SVG 1.1//EN" "http://www.w3.org/Graphics/SVG/1.1/DTD/svg11.dtd">
<svg version="1.1" id="Layer_1" xmlns="http://www.w3.org/2000/svg" xmlns:xlink="http://www.w3.org/1999/xlink" x="0px" y="0px"
	 width="512.025px" height="512.047px" viewBox="-49.025 141 512.025 512.047"
	 style="enable-background:new -49.025 141 512.025 512.047;" xml:space="preserve">
<g transform="translate(-1)">
	<path style="fill:#FFFFFF;" d="M255.301,479.454c-0.515,0.582-0.515,0.582-1.029,1.161c-3.803,4.27-7.397,7.981-7.043,7.742
		c-13.725,9.291-22.037,8.61-34.128-3.493l-46.497-46.476l-46.457-46.478c-12.115-12.102-12.796-20.415-3.502-34.143
		c-0.245,0.362,3.463-3.227,7.728-7.021c0.58-0.515,0.58-0.515,1.164-1.031c4.025-3.553,8.085-7.02,11.088-9.539
		c22.316-13.939,24.061-40.761,11.06-63.607c-1.696-2.896-4.429-7.336-8.125-12.981c-6.142-9.384-12.8-18.775-19.791-27.617
		c-10.011-12.661-19.896-23.183-29.707-30.973c-4.384-3.481-8.752-6.412-13.156-8.747c-20.651-10.914-45.979-7.101-62.475,9.395
		l-20.536,20.515c-45.28,45.303-53.035,98.578-27.337,153.631c8.966,19.204,21.916,36.95,38.271,53.355l166.014,166.569
		c13.432,13.457,27.506,24.429,42.627,32.75c59.052,32.488,116.663,27.342,165.36-21.355l20.53-20.552
		c16.489-16.489,20.305-41.824,9.393-62.435c-2.32-4.385-5.235-8.739-8.696-13.109c-7.796-9.842-18.34-19.755-31.036-29.794
		c-8.841-6.991-18.232-13.648-27.614-19.787c-5.645-3.694-10.085-6.426-12.74-7.983c-23.077-13.134-49.907-11.395-63.826,10.926
		C262.32,471.378,258.854,475.433,255.301,479.454z M35.048,403.024C22.007,389.942,11.957,376.17,5.22,361.741
		c-18.314-39.233-13.372-73.178,18.841-105.408l20.532-20.511c3.265-3.265,8.273-4.019,12.352-1.864
		c1.906,1.01,4.135,2.506,6.583,4.451c6.832,5.425,14.623,13.718,22.771,24.023c6.125,7.747,12.069,16.13,17.56,24.52
		c3.285,5.019,5.658,8.873,6.88,10.958c2.884,5.073,2.781,6.364,3.04,6.218l-3.197,2.203c-0.851,0.709-2.305,1.93-4.165,3.51
		c-3.1,2.633-6.203,5.311-9.12,7.886c-0.642,0.568-0.642,0.568-1.285,1.139c-7.733,6.879-12.033,11.041-14.699,14.978
		c-20.632,30.476-18.089,61.513,8.667,88.24l46.453,46.474l46.492,46.471c26.715,26.744,57.752,29.287,88.225,8.658
		c3.937-2.667,8.101-6.966,14.986-14.698c0.57-0.641,0.57-0.641,1.137-1.281c2.577-2.917,5.257-6.019,7.893-9.119
		c1.581-1.859,2.804-3.313,3.514-4.165l2.223-3.229c-0.159,0.284,1.117,0.181,6.425,3.202c1.846,1.084,5.7,3.456,10.717,6.739
		c8.388,5.489,16.769,11.43,24.514,17.554c10.328,8.166,18.634,15.976,24.055,22.82c1.929,2.435,3.413,4.652,4.429,6.572
		c2.149,4.059,1.396,9.06-1.86,12.315l-20.53,20.552c-34.58,34.58-71.464,37.874-114.613,14.135
		c-11.338-6.24-22.26-14.754-32.981-25.494L35.048,403.024z"/>
	<path style="fill:#FFFFFF;" d="M165.721,414.286c-3.007,15.561,11.404,28.852,26.671,24.598l52.109-14.518
		c20.549,10.191,44.798,15.3,70.166,15.3c83.291,0,149.333-66.042,149.333-149.333C464,207.246,396.696,141,313.195,141
		c-83.084,0-147.861,65.828-147.861,149.333c0,25.505,3.35,46.348,11.797,64.903L165.721,414.286z M220.391,356.247
		c0.94-4.866,0.157-9.908-2.216-14.26C211.039,328.899,208,312.668,208,290.333c0-60.093,45.83-106.667,105.195-106.667
		c60.087,0,108.139,47.296,108.139,106.667C421.334,350.06,374.395,397,314.667,397c-21.608,0-41.538-4.813-56.665-13.826
		c-5.011-2.986-11.026-3.789-16.645-2.224l-27.204,7.579L220.391,356.247z"/>
	<path style="fill:#FFFFFF;" d="M272,269h85.333c11.782,0,21.333-9.551,21.333-21.333c0-11.782-9.551-21.333-21.333-21.333H272
		c-11.782,0-21.333,9.551-21.333,21.333C250.667,259.449,260.218,269,272,269z"/>
	<path style="fill:#FFFFFF;" d="M272,354.333h85.333c11.782,0,21.333-9.551,21.333-21.333s-9.551-21.333-21.333-21.333H272
		c-11.782,0-21.333,9.551-21.333,21.333C250.667,344.782,260.218,354.333,272,354.333z"/>
</g>
</svg>
