<?xml version="1.0" encoding="utf-8"?>
<!-- Generator: Adobe Illustrator 18.0.0, SVG Export Plug-In . SVG Version: 6.00 Build 0)  -->
<!DOCTYPE svg PUBLIC "-//W3C//DTD SVG 1.1//EN" "http://www.w3.org/Graphics/SVG/1.1/DTD/svg11.dtd">
<svg version="1.1" id="Слой_1" xmlns="http://www.w3.org/2000/svg" xmlns:xlink="http://www.w3.org/1999/xlink" x="0px" y="0px"
	 width="11px" height="19.6px" viewBox="0 0 11 19.6" enable-background="new 0 0 11 19.6" xml:space="preserve">
<g>
	<defs>
		<rect id="SVGID_1_" y="0" width="11" height="19.6"/>
	</defs>
	<clipPath id="SVGID_2_">
		<use xlink:href="#SVGID_1_"  overflow="visible"/>
	</clipPath>
	<path clip-path="url(#SVGID_2_)" fill="#E4C66E" d="M6.5,15.8L5.9,3.1C6,3,6,3,6,2.9c0.1-0.1,0.2-0.1,0.2-0.1h0.5l0.1-0.3L6.8,2.3
		h0V2.1H6c0-0.1,0.1-0.2,0.1-0.3C6,1.6,6,1.6,6,1.6s0-0.3,0-0.4C5.9,1,5.8,0.9,5.8,0.9s0.1-0.1,0-0.3C5.7,0.5,5.6,0.3,5.6,0.2
		c0-0.1,0-0.2-0.1-0.2H5.4c0,0-0.1,0.2-0.1,0.2c0,0.1-0.1,0.2-0.2,0.4c-0.1,0.2,0,0.3,0,0.3S5.1,1,5,1.2C4.9,1.3,5,1.6,5,1.6
		s0,0-0.1,0.2c0,0.1,0,0.2,0,0.3H4.2v0.3h0L4.1,2.5l0.1,0.3h0.5c0,0,0.1,0,0.2,0.1C5,3,5,3,5,3.1L4.5,15.8H0v0.7h0.7
		C1,16.6,1.6,16.9,2,17.2c0.4,0.3,1.1,1,1.4,1.4H1.9v1.1H9v-1.1H7.6c0.3-0.4,0.9-1.1,1.4-1.4c0.4-0.3,0.9-0.5,1.3-0.6H11v-0.7H6.5z
		 M5.2,1.6c0.1-0.1,0-0.1,0.1-0.3c0-0.2,0.1-0.3,0.1-0.4c0.1-0.1,0.1-0.3,0.1-0.3S5.4,1.4,5.4,1.6C5.4,1.7,5.4,2,5.4,2L5.2,2
		C5.2,2,5.1,1.8,5.2,1.6 M10.7,16.2H0.2V16h10.5V16.2z"/>
</g>
</svg>
